<?xml version="1.0" encoding="UTF-8"?>
<svg width="800px" height="600px" viewBox="0 0 800 600" version="1.1" xmlns="http://www.w3.org/2000/svg" xmlns:xlink="http://www.w3.org/1999/xlink">
    <title>Education Hero</title>
    <defs>
        <linearGradient x1="0%" y1="0%" x2="100%" y2="100%" id="gradientFill">
            <stop stop-color="#2D5AF1" offset="0%"></stop>
            <stop stop-color="#5C7CFA" offset="100%"></stop>
        </linearGradient>
        <linearGradient x1="0%" y1="0%" x2="100%" y2="100%" id="gradientStroke">
            <stop stop-color="#2D5AF1" offset="0%"></stop>
            <stop stop-color="#5C7CFA" offset="100%"></stop>
        </linearGradient>
    </defs>
    <g stroke="none" stroke-width="1" fill="none" fill-rule="evenodd">
        <!-- Brain Icon -->
        <g transform="translate(300, 150)" stroke-width="4" stroke="url(#gradientStroke)">
            <path d="M100,200 C155.228,200 200,155.228 200,100 C200,44.772 155.228,0 100,0 C44.772,0 0,44.772 0,100 C0,155.228 44.772,200 100,200 Z" fill-opacity="0.1" fill="url(#gradientFill)"></path>
            <path d="M100,160 C133.137,160 160,133.137 160,100 C160,66.863 133.137,40 100,40 C66.863,40 40,66.863 40,100 C40,133.137 66.863,160 100,160 Z" fill-opacity="0.1" fill="url(#gradientFill)"></path>
            <!-- Brain Patterns -->
            <path d="M60,80 Q80,60 100,80 Q120,100 140,80" fill="none"></path>
            <path d="M60,120 Q80,140 100,120 Q120,100 140,120" fill="none"></path>
            <path d="M80,60 Q100,40 120,60" fill="none"></path>
            <path d="M80,140 Q100,160 120,140" fill="none"></path>
            <!-- Neural Network Lines -->
            <path d="M20,100 L40,100" fill="none"></path>
            <path d="M160,100 L180,100" fill="none"></path>
            <path d="M100,20 L100,40" fill="none"></path>
            <path d="M100,160 L100,180" fill="none"></path>
        </g>
        
        <!-- Binary Data Background -->
        <g transform="translate(50, 50)" fill-opacity="0.05" fill="#2D5AF1">
            <text font-family="Courier" font-size="14">
                <tspan x="0" y="20">01001001 01001110 01010100 01000101 01001100 01001100 01001001 01000111 01000101 01001110 01000011 01000101</tspan>
                <tspan x="0" y="50">00101011 01001100 01000101 01000001 01010010 01001110 01001001 01001110 01000111 00101011 01000001 01001001</tspan>
                <tspan x="0" y="80">01000101 01000100 01010101 01000011 01000001 01010100 01001001 01001111 01001110 00101011 01000110 01010101 01010100 01010101 01010010 01000101</tspan>
                <tspan x="0" y="320">01001001 01001110 01010100 01000101 01001100 01001100 01001001 01000111 01000101 01001110 01000011 01000101</tspan>
                <tspan x="0" y="350">00101011 01001100 01000101 01000001 01010010 01001110 01001001 01001110 01000111 00101011 01000001 01001001</tspan>
                <tspan x="0" y="380">01000101 01000100 01010101 01000011 01000001 01010100 01001001 01001111 01001110 00101011 01000110 01010101 01010100 01010101 01010010 01000101</tspan>
            </text>
        </g>
        
        <!-- Books Stack -->
        <g transform="translate(120, 320)">
            <rect x="0" y="0" width="160" height="30" rx="2" fill="#5C7CFA" opacity="0.8"></rect>
            <rect x="10" y="-20" width="160" height="30" rx="2" fill="#4263EB" opacity="0.8"></rect>
            <rect x="20" y="-40" width="160" height="30" rx="2" fill="#3B5BDB" opacity="0.8"></rect>
            <rect x="30" y="-60" width="160" height="30" rx="2" fill="#364FC7" opacity="0.8"></rect>
            <rect x="40" y="-80" width="160" height="30" rx="2" fill="#2D5AF1" opacity="0.8"></rect>
        </g>
        
        <!-- Graduation Cap -->
        <g transform="translate(500, 250)">
            <rect x="0" y="0" width="100" height="20" rx="2" fill="#2D5AF1" opacity="0.7"></rect>
            <polygon points="50,20 0,50 100,50" fill="#2D5AF1" opacity="0.8"></polygon>
            <circle cx="50" cy="10" r="30" fill-opacity="0.1" fill="url(#gradientFill)" stroke="url(#gradientStroke)" stroke-width="2"></circle>
        </g>
        
        <!-- AI Text -->
        <g transform="translate(400, 400)" fill="#2D5AF1" font-family="Arial" font-weight="bold">
            <text font-size="48" text-anchor="middle">
                <tspan x="0" y="0">AI</tspan>
            </text>
            <circle cx="0" cy="0" r="50" fill-opacity="0.1" fill="url(#gradientFill)" stroke="url(#gradientStroke)" stroke-width="2"></circle>
        </g>
        
        <!-- Connection Lines -->
        <g stroke="url(#gradientStroke)" stroke-width="2" stroke-dasharray="5,5">
            <path d="M250,250 L400,400" fill="none"></path>
            <path d="M400,250 L400,400" fill="none"></path>
            <path d="M550,250 L400,400" fill="none"></path>
        </g>
    </g>
</svg> 